# xmcd CD database file
#
# Track frame offsets:
#	150
#	63363
#	97105
#	112480
#	151926
#	180373
#
# Disc length: 2858 seconds
#
# Revision: 0
# Processed by: cddbd v1.5.2PL0 Copyright (c) Steve Scherf et al.
# Submitted via: CDex 1.70beta3
#
DISCID=4c0b2806
DTITLE=Ornette Coleman - New York Is Now!
DYEAR=1968
DGENRE=Jazz
TTITLE0=The Garden Of Souls
TTITLE1=Toy Dance
TTITLE2=We Now Interrupt For A Commercial
TTITLE3=Broad Way Blues
TTITLE4=Round Trip
TTITLE5=Broad Way Blues (Alternate Take)
EXTD=YEAR: 1968
EXTT0=
EXTT1=
EXTT2=
EXTT3=
EXTT4=
EXTT5=
PLAYORDER=
